<svg width="153" height="154" viewBox="0 0 153 154" fill="none" xmlns="http://www.w3.org/2000/svg">
<path d="M79.7561 140C116.54 140 146.371 110.393 146.371 73.8335C146.371 37.2737 116.54 7.66699 79.7561 7.66699C42.972 7.66699 13.141 37.2737 13.141 73.8335C13.141 110.393 42.972 140 79.7561 140Z" fill="#FAFAFA"/>
<path d="M130.783 65.1978V105.683C130.783 114.094 123.942 120.935 115.419 120.935H44.3177C35.9067 120.935 29.0658 114.206 28.9536 105.795C28.9536 105.683 28.9536 105.683 28.9536 105.571V65.1978C28.9536 65.0857 28.9536 65.0857 28.9536 64.9735C28.9536 64.7492 28.9536 64.5249 29.0658 64.3007C29.1779 63.9642 29.2901 63.7399 29.4022 63.4035L48.4671 26.9558C49.14 25.4979 50.5979 24.7129 52.168 24.7129H107.456C109.026 24.7129 110.372 25.4979 111.157 26.9558L130.222 63.4035C130.334 63.6278 130.446 63.9642 130.558 64.3007C130.783 64.5249 130.783 64.8614 130.783 65.1978Z" fill="#E9E9E9"/>
<g filter="url(#filter0_d_426_5352)">
<path d="M130.783 65.198V109.832C130.783 116 125.848 120.935 119.568 120.935H40.1683C34.0002 120.935 28.9536 116 28.9536 109.832V64.9737C28.9536 64.7494 28.9536 64.5251 29.0658 64.3008H54.6352C58.4482 64.3008 61.5883 67.3287 61.5883 71.2539C61.5883 73.1604 62.3733 74.9547 63.6069 76.1883C64.9527 77.5341 66.5227 78.207 68.5414 78.207H91.3071C95.1201 78.207 98.2602 75.179 98.2602 71.2539C98.2602 69.3474 99.0453 67.553 100.279 66.3194C101.625 64.9737 103.195 64.3008 105.101 64.3008H130.558C130.783 64.5251 130.783 64.8615 130.783 65.198Z" fill="url(#paint0_linear_426_5352)"/>
</g>
<path d="M144.669 42.2077C147.208 42.2077 149.267 40.1491 149.267 37.6097C149.267 35.0703 147.208 33.0117 144.669 33.0117C142.13 33.0117 140.071 35.0703 140.071 37.6097C140.071 40.1491 142.13 42.2077 144.669 42.2077Z" fill="#F0F0F0"/>
<path d="M140.071 27.2929C141.805 27.2929 143.211 25.887 143.211 24.1528C143.211 22.4186 141.805 21.0127 140.071 21.0127C138.337 21.0127 136.931 22.4186 136.931 24.1528C136.931 25.887 138.337 27.2929 140.071 27.2929Z" fill="#F0F0F0"/>
<path d="M12.8969 37.6103C14.6312 37.6103 16.037 36.2044 16.037 34.4702C16.037 32.736 14.6312 31.3301 12.8969 31.3301C11.1627 31.3301 9.75684 32.736 9.75684 34.4702C9.75684 36.2044 11.1627 37.6103 12.8969 37.6103Z" fill="#F0F0F0"/>
<path d="M5.83162 106.693C9.05234 106.693 11.6632 104.082 11.6632 100.861C11.6632 97.6402 9.05234 95.0293 5.83162 95.0293C2.61091 95.0293 0 97.6402 0 100.861C0 104.082 2.61091 106.693 5.83162 106.693Z" fill="#F0F0F0"/>
<path d="M107.927 11.2207C109.391 27.1984 110.123 30.8574 106.809 45.3274C105.731 48.5444 104.654 52.0678 102.345 54.5188C99.1116 58.3485 93.2616 60.0336 88.4893 58.8081C83.5629 57.5826 79.5603 53.2933 78.6366 48.0848C77.8669 44.8679 78.9445 41.0381 81.7156 39.0467C84.6406 37.2084 88.7971 37.668 91.2603 39.9658C94.0314 42.2636 95.109 45.787 94.9551 49.1572C94.8011 52.5273 93.5695 55.8975 91.8761 58.8081C88.048 65.9649 86.472 65.9386 78.6366 77.6927" stroke="#CFCFCF" stroke-width="2" stroke-miterlimit="10" stroke-dasharray="4 4"/>
<path d="M116.511 5.2703C115.925 7.40535 113.585 8.18173 111.244 6.82306C108.708 5.65849 106.953 4.68802 107.343 2.74707C107.928 0.806115 110.269 0.612019 113 0.417924C116.316 0.0297339 116.901 3.13526 116.511 5.2703Z" fill="#E9E9E9"/>
<path d="M97.5902 7.21085C98.5655 8.95771 101.296 10.1223 103.247 8.37542C105.392 6.43447 107.148 5.07581 106.173 3.13485C105.197 1.388 103.637 1.97028 100.321 2.35847C97.5902 2.94076 96.4199 5.2699 97.5902 7.21085Z" fill="#E9E9E9"/>
<path d="M106.173 0.0297244C107.538 -0.164371 108.903 0.61201 109.293 1.77658C109.489 2.16477 109.684 2.74706 109.684 3.13525C110.074 5.85258 109.098 8.18172 107.538 8.37582C105.782 8.76401 104.027 6.82305 103.832 4.29982C103.832 3.52344 103.832 3.13525 103.832 2.55296C104.027 1.1943 104.807 0.22382 106.173 0.0297244Z" fill="#ACADAF"/>
<path d="M67.0729 94.311C68.4939 94.311 69.6458 93.159 69.6458 91.738C69.6458 90.317 68.4939 89.165 67.0729 89.165C65.6518 89.165 64.4999 90.317 64.4999 91.738C64.4999 93.159 65.6518 94.311 67.0729 94.311Z" fill="#ACADAF"/>
<path d="M92.6635 94.311C94.0846 94.311 95.2365 93.159 95.2365 91.738C95.2365 90.317 94.0846 89.165 92.6635 89.165C91.2425 89.165 90.0906 90.317 90.0906 91.738C90.0906 93.159 91.2425 94.311 92.6635 94.311Z" fill="#ACADAF"/>
<path d="M84.0406 111.21H75.974C74.7223 111.21 73.6792 110.167 73.6792 108.915C73.6792 107.663 74.7223 106.62 75.974 106.62H83.9711C85.2228 106.62 86.2659 107.663 86.2659 108.915C86.3355 110.167 85.2924 111.21 84.0406 111.21Z" fill="#ACADAF"/>
<defs>
<filter id="filter0_d_426_5352" x="6.95361" y="53.3008" width="145.829" height="100.634" filterUnits="userSpaceOnUse" color-interpolation-filters="sRGB">
<feFlood flood-opacity="0" result="BackgroundImageFix"/>
<feColorMatrix in="SourceAlpha" type="matrix" values="0 0 0 0 0 0 0 0 0 0 0 0 0 0 0 0 0 0 127 0" result="hardAlpha"/>
<feOffset dy="11"/>
<feGaussianBlur stdDeviation="11"/>
<feColorMatrix type="matrix" values="0 0 0 0 0.397708 0 0 0 0 0.47749 0 0 0 0 0.575 0 0 0 0.27 0"/>
<feBlend mode="normal" in2="BackgroundImageFix" result="effect1_dropShadow_426_5352"/>
<feBlend mode="normal" in="SourceGraphic" in2="effect1_dropShadow_426_5352" result="shape"/>
</filter>
<linearGradient id="paint0_linear_426_5352" x1="79.835" y1="62.9908" x2="79.835" y2="121.545" gradientUnits="userSpaceOnUse">
<stop stop-color="#FDFEFF"/>
<stop offset="0.9964" stop-color="#F5F5F5"/>
</linearGradient>
</defs>
</svg>
