<svg width="175" height="180" viewBox="0 0 175 180" fill="none" xmlns="http://www.w3.org/2000/svg">
<path d="M153.37 66.6351C156.472 66.6351 158.986 64.1159 158.986 61.0085C158.986 57.901 156.472 55.3818 153.37 55.3818C150.269 55.3818 147.754 57.901 147.754 61.0085C147.754 64.1159 150.269 66.6351 153.37 66.6351Z" fill="#F0F0F0"/>
<path d="M4.19464 97.0626C6.23513 97.0626 7.88928 95.4053 7.88928 93.3609C7.88928 91.3165 6.23513 89.6592 4.19464 89.6592C2.15415 89.6592 0.5 91.3165 0.5 93.3609C0.5 95.4053 2.15415 97.0626 4.19464 97.0626Z" fill="#F0F0F0"/>
<path d="M21.1783 163.612C23.2188 163.612 24.8729 161.955 24.8729 159.911C24.8729 157.866 23.2188 156.209 21.1783 156.209C19.1378 156.209 17.4836 157.866 17.4836 159.911C17.4836 161.955 19.1378 163.612 21.1783 163.612Z" fill="#F0F0F0"/>
<path d="M40.9274 163.613L92.7735 147.351V80.6758L40.9274 96.8129V163.613Z" fill="#CCCCCC"/>
<path opacity="0.4" d="M144.62 163.613L92.7734 147.351V80.6758L144.62 96.8129V163.613Z" fill="#9D9D9D"/>
<g opacity="0.13">
<path d="M40.9274 163.613L92.7735 147.351V80.6758L40.9274 96.8129V163.613Z" fill="url(#paint0_linear_135_2161)"/>
<path d="M144.62 163.613L92.7735 147.351V80.6758L144.62 96.8129V163.613Z" fill="url(#paint1_linear_135_2161)"/>
</g>
<path d="M92.7735 180.001L40.9274 163.739V97.0635L92.7735 113.326V180.001Z" fill="#F3F3F3"/>
<path d="M92.7734 180.001L144.62 163.739V97.0635L92.7734 113.326V180.001Z" fill="#EEEEEE"/>
<path opacity="0.09" d="M81.0267 168.242L40.9274 163.739V97.0635L92.7735 113.326L81.0267 168.242Z" fill="url(#paint2_linear_135_2161)"/>
<path opacity="0.2" d="M104.52 156.483L144.62 163.739V97.0635L92.7734 113.326L104.52 156.483Z" fill="url(#paint3_linear_135_2161)"/>
<path d="M92.7736 80.6758L68.3972 62.4121L15.6849 80.1754L40.9274 96.8129L92.7736 80.6758Z" fill="#EEEEEE"/>
<path d="M92.7734 80.6758L117.15 62.4121L169.862 80.1754L144.62 96.8129L92.7734 80.6758Z" fill="#EEEEEE"/>
<path d="M40.9274 97.0635L92.7736 113.326L66.9124 129.838L15.6849 112.825L40.9274 97.0635Z" fill="#F4F4F4"/>
<path d="M144.62 97.0635L92.7734 113.326L118.635 129.838L169.862 112.825L144.62 97.0635Z" fill="#F3F3F3"/>
<path d="M107.239 16.6647C114.502 36.3967 116.667 40.781 117.378 60.2241C117.105 64.6623 116.935 69.4884 114.845 73.3745C112.053 79.3193 105.225 83.4363 98.7744 83.503C92.1288 83.6218 85.6136 79.5487 82.681 73.2678C80.6178 69.456 80.6835 64.2421 83.5136 60.7812C86.5903 57.4621 92.0029 56.6345 95.8965 58.7084C100.18 60.6779 102.736 64.7732 103.683 69.0921C104.63 73.4111 104.214 78.0954 103.058 82.3545C100.641 92.7133 98.6385 93.2144 92.7103 110.752" stroke="#F0F0F0" stroke-width="2" stroke-miterlimit="10" stroke-dasharray="4 4"/>
<path d="M116.079 6.22135C116.062 9.12281 113.365 10.8994 109.944 9.97297C106.343 9.35841 103.794 8.72502 103.63 6.13543C103.712 3.4797 106.607 2.4403 109.995 1.26861C114.057 -0.347232 115.849 3.38603 116.079 6.22135Z" fill="#E9E9E9"/>
<path d="M92.8069 15.0934C94.6321 16.9743 98.4803 17.5228 100.356 14.6498C102.412 11.4649 104.172 9.14956 102.281 7.02295C100.456 5.14208 98.6793 6.40839 94.6169 8.02423C91.3605 9.68738 90.6693 13.033 92.8069 15.0934Z" fill="#E9E9E9"/>
<path d="M101.229 3.09161C102.89 2.3829 104.88 2.90284 105.768 4.24495C106.146 4.67027 106.59 5.34132 106.721 5.83278C108.135 9.14073 107.691 12.4202 105.783 13.195C103.694 14.2818 100.816 12.4197 99.715 9.29136C99.4521 8.30844 99.3206 7.81698 99.1233 7.07979C98.9098 5.29353 99.5678 3.80032 101.229 3.09161C101.476 3.02547 101.229 3.09161 101.229 3.09161Z" fill="#ACADAF"/>
<path d="M24.8728 56.3411H21.6571V53.1221H18.9007V56.3411H15.6849V59.1923H18.9007V62.4113H21.6571V59.1923H24.8728V56.3411Z" fill="url(#paint4_linear_135_2161)"/>
<path d="M31.9365 137.106H28.7208V133.887H25.9644V137.106H22.7487V139.957H25.9644V143.176H28.7208V139.957H31.9365V137.106Z" fill="url(#paint5_linear_135_2161)"/>
<path d="M172.514 137.288L168.579 135.299L170.566 131.361L167.193 129.656L165.207 133.595L161.272 131.607L159.513 135.095L163.447 137.083L161.461 141.022L164.833 142.726L166.82 138.788L170.754 140.776L172.514 137.288Z" fill="url(#paint6_linear_135_2161)"/>
<defs>
<linearGradient id="paint0_linear_135_2161" x1="76.4068" y1="85.5047" x2="69.3215" y2="114.972" gradientUnits="userSpaceOnUse">
<stop offset="0.00289017" stop-color="#606673" stop-opacity="0"/>
<stop offset="1" stop-color="#373C47"/>
</linearGradient>
<linearGradient id="paint1_linear_135_2161" x1="76.4068" y1="85.5047" x2="69.3215" y2="114.972" gradientUnits="userSpaceOnUse">
<stop offset="0.00289017" stop-color="#606673" stop-opacity="0"/>
<stop offset="1" stop-color="#373C47"/>
</linearGradient>
<linearGradient id="paint2_linear_135_2161" x1="52.551" y1="142.696" x2="65.029" y2="107.489" gradientUnits="userSpaceOnUse">
<stop offset="0.00289017" stop-color="#8D97AC" stop-opacity="0"/>
<stop offset="1" stop-color="#717886"/>
</linearGradient>
<linearGradient id="paint3_linear_135_2161" x1="120.754" y1="152.315" x2="121.736" y2="107.628" gradientUnits="userSpaceOnUse">
<stop offset="0.00289017" stop-color="#777D8C" stop-opacity="0"/>
<stop offset="1" stop-color="#525866"/>
</linearGradient>
<linearGradient id="paint4_linear_135_2161" x1="20.2796" y1="53.4448" x2="20.2796" y2="58.6587" gradientUnits="userSpaceOnUse">
<stop stop-color="#C9CACD"/>
<stop offset="1" stop-color="#ADAEB0"/>
</linearGradient>
<linearGradient id="paint5_linear_135_2161" x1="27.3433" y1="134.209" x2="27.3433" y2="139.423" gradientUnits="userSpaceOnUse">
<stop stop-color="#C9CACD"/>
<stop offset="1" stop-color="#ADAEB0"/>
</linearGradient>
<linearGradient id="paint6_linear_135_2161" x1="168.681" y1="130.904" x2="165.458" y2="137.281" gradientUnits="userSpaceOnUse">
<stop stop-color="#C9CACD"/>
<stop offset="1" stop-color="#ADAEB0"/>
</linearGradient>
</defs>
</svg>
