<svg width="97" height="81" viewBox="0 0 97 81" fill="none" xmlns="http://www.w3.org/2000/svg">
<path d="M33.856 23.5102V16.77C33.856 10.0298 39.2321 4.49316 46.0526 4.49316C52.7126 4.49316 58.2492 9.94954 58.2492 16.77V23.5102" stroke="#CACACA" stroke-width="1.8941" stroke-miterlimit="10" stroke-linecap="round" stroke-linejoin="round"/>
<path d="M75.5811 73.5799C75.902 73.4194 75.9823 73.259 76.3032 73.1787" stroke="#2B1F24" stroke-width="0.6123" stroke-linecap="round" stroke-linejoin="round"/>
<path d="M9.38232 80H95.4808" stroke="#DFDFDF" stroke-width="2" stroke-miterlimit="10" stroke-linecap="round" stroke-linejoin="round"/>
<path d="M1.51904 80H5.04964" stroke="#DFDFDF" stroke-width="2" stroke-miterlimit="10" stroke-linecap="round" stroke-linejoin="round"/>
<path d="M81.6797 10.752H13.3145V79.2776H81.6797V10.752Z" fill="#E1E1E1"/>
<path d="M81.8402 10.752H32.3315V79.2776H81.7599V10.752H81.8402Z" fill="#EAEAEA"/>
<path d="M22.7829 10.752H13.3145V79.2776H22.7829V10.752Z" fill="url(#paint0_linear_717_4861)"/>
<path d="M32.3315 79.2775H13.3145V79.117L22.9434 69.5684L32.3315 79.2775Z" fill="#EAEAEA"/>
<path d="M44.2878 25.9974C45.6519 25.9974 46.7752 24.874 46.7752 23.5099C46.7752 22.1458 45.6519 21.0225 44.2878 21.0225C42.9237 21.0225 41.8003 22.1458 41.8003 23.5099C41.8003 24.874 42.9237 25.9974 44.2878 25.9974Z" fill="#CACACA"/>
<path d="M68.6808 25.9974C70.0449 25.9974 71.1683 24.874 71.1683 23.5099C71.1683 22.1458 70.0449 21.0225 68.6808 21.0225C67.3167 21.0225 66.1934 22.1458 66.1934 23.5099C66.2736 24.874 67.3167 25.9974 68.6808 25.9974Z" fill="#CACACA"/>
<path d="M44.2871 23.5102V16.77C44.2871 10.0298 49.6632 4.49316 56.4837 4.49316C63.1437 4.49316 68.6803 9.94954 68.6803 16.77V23.5102" stroke="#CACACA" stroke-width="1.8941" stroke-miterlimit="10" stroke-linecap="round" stroke-linejoin="round"/>
<path d="M76.4592 1.73281C78.192 0.622032 80.2358 0 82.4129 0C88.3666 0 93.2096 4.79854 93.2096 10.7523C93.2096 16.706 88.3666 21.5046 82.4129 21.5046C76.4592 21.5046 71.6162 16.706 71.6162 10.7523C71.5273 6.97566 73.4823 3.68777 76.4592 1.73281Z" fill="url(#paint1_linear_717_4861)"/>
<path d="M82.4115 15.5664C80.2428 15.5664 78.3994 13.619 78.3994 10.6979C78.3994 7.77673 80.2428 5.9375 82.4115 5.9375C84.5801 5.9375 86.4235 7.77673 86.4235 10.6979C86.4235 13.619 84.5801 15.5664 82.4115 15.5664ZM82.4115 13.2944C83.1705 13.2944 83.9295 12.5371 83.9295 10.6979C84.038 8.96682 83.1705 8.1013 82.4115 8.1013C81.6524 8.1013 80.8934 8.96682 80.8934 10.6979C80.8934 12.5371 81.6524 13.2944 82.4115 13.2944Z" fill="white"/>
<path d="M48.7616 45.496C46.0052 45.496 43.6899 43.7324 42.8078 41.1974C42.5873 40.6463 42.9181 40.0952 43.4694 39.8747C44.0206 39.6543 44.5719 39.9849 44.7924 40.536C45.3437 42.1894 46.9975 43.4018 48.7616 43.4018C50.5257 43.4018 52.1795 42.2996 52.7308 40.536C52.9513 39.9849 53.5025 39.6543 54.0538 39.8747C54.6051 40.0952 54.9358 40.6463 54.7153 41.1974C53.8333 43.8427 51.518 45.496 48.7616 45.496Z" fill="#CACACA"/>
<path d="M65.41 45.496C62.6537 45.496 60.3383 43.7324 59.4563 41.1974C59.2358 40.6463 59.5665 40.0952 60.1178 39.8747C60.6691 39.6543 61.2204 39.9849 61.4409 40.536C61.9921 42.1894 63.646 43.4018 65.41 43.4018C67.1741 43.4018 68.8279 42.2996 69.3792 40.536C69.5997 39.9849 70.151 39.6543 70.7022 39.8747C71.2535 40.0952 71.5843 40.6463 71.3638 41.1974C70.4817 43.8427 68.1664 45.496 65.41 45.496Z" fill="#CACACA"/>
<path d="M57.1408 58.9911C58.5413 58.9911 59.6767 57.8561 59.6767 56.456C59.6767 55.0559 58.5413 53.9209 57.1408 53.9209C55.7403 53.9209 54.605 55.0559 54.605 56.456C54.605 57.8561 55.7403 58.9911 57.1408 58.9911Z" fill="#CACACA"/>
<defs>
<linearGradient id="paint0_linear_717_4861" x1="18.0277" y1="12.5757" x2="18.0277" y2="78.2916" gradientUnits="userSpaceOnUse">
<stop offset="0.00289017" stop-color="#EAEAEA"/>
<stop offset="1" stop-color="#D5D5D5"/>
</linearGradient>
<linearGradient id="paint1_linear_717_4861" x1="71.6034" y1="10.7546" x2="93.2136" y2="10.7546" gradientUnits="userSpaceOnUse">
<stop stop-color="#CCCCCC"/>
<stop offset="1" stop-color="#B8B8B8"/>
</linearGradient>
</defs>
</svg>
