<svg width="40" height="40" viewBox="0 0 40 40" fill="none" xmlns="http://www.w3.org/2000/svg" class="w-4 h-4" data-v-26dda330=""><path fill-rule="evenodd" clip-rule="evenodd" d="M0 19.4007C0 8.25363 8.73239 0 20 0C31.2676 0 40 8.25363 40 19.4007C40 30.5477 31.2676 38.8013 20 38.8013C17.9759 38.8013 16.0322 38.5357 14.2093 38.0327C13.8551 37.9361 13.4809 37.9643 13.1429 38.1132L9.17505 39.8637C8.13682 40.3184 6.9658 39.582 6.92958 38.4472L6.82093 34.8898C6.80483 34.4511 6.60765 34.0447 6.28169 33.7509C2.39034 30.27 0 25.2317 0 19.4007ZM26.08 24.872C25.744 24.6 25.224 24.464 24.52 24.464H18.304L25.696 14.408C26.064 13.896 26.248 13.368 26.248 12.824C26.248 12.296 26.072 11.864 25.72 11.528C25.384 11.176 24.928 11 24.352 11H15.136C14.416 11 13.88 11.144 13.528 11.432C13.192 11.704 13.024 12.144 13.024 12.752C13.024 13.328 13.192 13.76 13.528 14.048C13.88 14.32 14.416 14.456 15.136 14.456H20.944L13.552 24.512C13.184 25.024 13 25.544 13 26.072C13 26.6 13.168 27.04 13.504 27.392C13.856 27.744 14.328 27.92 14.92 27.92H24.52C25.24 27.92 25.768 27.784 26.104 27.512C26.44 27.224 26.608 26.776 26.608 26.168C26.608 25.576 26.432 25.144 26.08 24.872Z" fill="#00B2FF" data-v-26dda330=""></path></svg>